<svg xmlns="http://www.w3.org/2000/svg" viewBox="0 0 400 140">
    <defs>
        <style>
            .cls-1 {
                fill: #1a1a1a;
            }

            .cls-2 {
                fill: #333;
            }

            .cls-3 {
                opacity: 0.3;
            }

            .cls-4 {
                fill: #80bceb;
            }

            .cls-5 {
                fill: gray;
            }

            .cls-6 {
                fill: #55a5e4;
            }

            .cls-7 {
                fill: #2e2e2e;
            }

            .cls-8 {
                font-size: 20px;
                font-family: SegoeUI-Semilight, Segoe UI;
            }

            .cls-10, .cls-8 {
                fill: #f2f2f2;
            }

            .cls-9 {
                fill: #b3b3b3;
            }

            .cls-11 {
                fill: #acacac;
            }

            .cls-12 {
                fill: #633ba3;
            }

            .cls-13 {
                fill: #5c2d91;
            }

            .cls-14 {
                fill: #fff;
            }
        </style>
    </defs>
    <title>EntityFramework-Core 2.0.2</title>
    <g id="Layer_5" data-name="Layer 5"><polygon class="cls-1" points="223 102 204 102 205 89 222 89 223 102" /><polygon class="cls-2" points="223 102 213 102 213 89 222 89 223 102" /><path class="cls-1" d="M181,91h74V85l-4-31c0-3.31,7.69-8,11-8l7,7h8V23a4,4,0,0,0-4-4H152a4,4,0,0,0-4,4V52h4l25-3c2.23,0,9,2.76,9,5l-5,32Z" /><text class="cls-3"></text><path class="cls-4" d="M255,87V59a6,6,0,0,1,6-6h12V23H152V52l24.8-1.16h.14A4.06,4.06,0,0,1,181,54.9V87Z" /><rect class="cls-1" x="181" y="117" width="74" height="2" /><rect class="cls-5" x="181" y="109" width="74" height="8" /><polygon class="cls-6" points="273 53 273 23 240 23 270 53 273 53" /><rect class="cls-7" x="181" y="111" width="74" height="4" /><rect class="cls-2" x="257" y="55" width="93" height="69" rx="4" ry="4" /><path class="cls-1" d="M358,129H249.3c-3.64,0-4.23-4-4.23-4H362S360.82,129,358,129Z" /><polygon class="cls-5" points="245.07 125 257 121 350 121 362 125 245.07 125" /><rect class="cls-4" x="261" y="59" width="86" height="57" /><text class="cls-8" transform="translate(288 92.64)">iOS</text><polygon class="cls-6" points="347 59 347 86 320 59 347 59" /><rect class="cls-9" x="302" y="117" width="3" height="3" /><polygon class="cls-10" points="209 52.99 209 37.94 193 40 193 53 209 52.99" /><polygon class="cls-10" points="211 52.99 232 53 232 35 211 37.7 211 52.99" /><polygon class="cls-10" points="211 55 211 70.49 232 73.32 232 55 211 55" /><polygon class="cls-10" points="209 55 193 55 193 68 209 70.23 209 55" /><path class="cls-7" d="M107,71h-4.55A36.79,36.79,0,0,1,81,85.89V123a4,4,0,0,0,4,4h22a4,4,0,0,0,4-4V75A4,4,0,0,0,107,71Z" /><circle class="cls-11" cx="87" cy="122" r="1" /><circle class="cls-11" cx="105" cy="122" r="1" /><polygon class="cls-11" points="97 123 95 122.72 95 121.41 97 121 97 123" /><path class="cls-4" d="M97.09,77.2A37,37,0,0,1,83,85.32V118h26V77H97.29Z" /><path class="cls-2" d="M176.85,52.84,108.49,56c-.68,4.06-1.49,11-1.49,11,3.31,0,9,5.69,9,9l-3,33v10.05l63.85,3A2.05,2.05,0,0,0,179,120V54.9A2.05,2.05,0,0,0,176.85,52.84Z" /><path class="cls-4" d="M147.68,59.68,138.9,60l-31.66,1.23A37.2,37.2,0,0,1,103.73,69H107a6,6,0,0,1,6,6v38.42L175,116V58.61Z" /><polygon class="cls-6" points="175 58.61 175 87 147.68 59.68 175 58.61" /><path class="cls-6" d="M97.09,77.2a37.27,37.27,0,0,1-3.24,2.65L109,95V77H97.29Z" /><path class="cls-12" d="M107,50A35,35,0,1,1,72,15,34.91,34.91,0,0,1,107,50Z" /><path class="cls-13" d="M95.73,75.73A35,35,0,0,1,46.27,26.27Z" /><path class="cls-14" d="M45.15,55.36a1.43,1.43,0,0,1-1.43-1.43,1.41,1.41,0,0,1,.41-1,1.38,1.38,0,0,1,1-.42,1.41,1.41,0,0,1,.56.11,1.51,1.51,0,0,1,.46.3,1.44,1.44,0,0,1,.43,1,1.33,1.33,0,0,1-.12.56,1.55,1.55,0,0,1-.31.46,1.44,1.44,0,0,1-.46.31A1.41,1.41,0,0,1,45.15,55.36Z" /><path class="cls-14" d="M64.43,55.06,52.54,37.86l-.44-.67a4.37,4.37,0,0,1-.35-.67h-.07q0,.27.05.75t0,1.2v16.6h-2V33.63H52l11.7,17,.49.75.4.65h.07q-.06-.49-.09-1.11t0-1.36V33.63h2V55.06Z" /><path class="cls-14" d="M70.52,55.06V33.63H81v1.82H72.51v7.86h7.83v1.79H72.51v8.14h8.93v1.81Z" /><path class="cls-14" d="M92.1,35.46v19.6h-2V35.46H83.94V33.63H98.28v1.82Z" /><path class="cls-14" d="M65.11,64.93a4.69,4.69,0,0,1-2.17.45,3.56,3.56,0,0,1-2.7-1.06,3.87,3.87,0,0,1-1-2.79,4.06,4.06,0,0,1,1.14-3,3.9,3.9,0,0,1,2.88-1.14,4.74,4.74,0,0,1,1.86.32V59a3.33,3.33,0,0,0-1.73-.46,2.71,2.71,0,0,0-2,.8,3,3,0,0,0-.78,2.15,2.82,2.82,0,0,0,.73,2,2.53,2.53,0,0,0,1.92.76,3.43,3.43,0,0,0,1.9-.52Z" /><path class="cls-14" d="M68.88,65.39a2.74,2.74,0,0,1-2-.77,2.8,2.8,0,0,1-.76-2.05,2.73,2.73,0,0,1,2.94-3,2.65,2.65,0,0,1,2,.76,2.94,2.94,0,0,1,.72,2.11A2.89,2.89,0,0,1,71,64.59,2.8,2.8,0,0,1,68.88,65.39Zm.06-4.79a1.43,1.43,0,0,0-1.16.51,2.15,2.15,0,0,0-.43,1.41,2,2,0,0,0,.43,1.37,1.45,1.45,0,0,0,1.15.5,1.37,1.37,0,0,0,1.14-.49,2.17,2.17,0,0,0,.4-1.4,2.21,2.21,0,0,0-.4-1.41A1.37,1.37,0,0,0,68.94,60.6Z" /><path class="cls-14" d="M76.24,60.93a1,1,0,0,0-.65-.18,1.12,1.12,0,0,0-.93.5,2.25,2.25,0,0,0-.37,1.37v2.64H73V59.73h1.25v1.14h0a1.92,1.92,0,0,1,.56-.91,1.27,1.27,0,0,1,.85-.33,1.06,1.06,0,0,1,.52.1Z" /><path class="cls-14" d="M81.7,62.84H77.94A1.59,1.59,0,0,0,78.41,64a1.75,1.75,0,0,0,1.24.42,2.73,2.73,0,0,0,1.62-.53v1a3.71,3.71,0,0,1-2,.47,2.47,2.47,0,0,1-1.91-.75,3,3,0,0,1-.69-2.12,2.94,2.94,0,0,1,.76-2.1,2.5,2.5,0,0,1,1.9-.81,2.18,2.18,0,0,1,1.75.73,3,3,0,0,1,.62,2ZM80.49,62a1.61,1.61,0,0,0-.32-1.05,1.06,1.06,0,0,0-.86-.37,1.21,1.21,0,0,0-.91.39,1.8,1.8,0,0,0-.46,1Z" /><path class="cls-10" d="M127,94.5a1.94,1.94,0,0,1-2-1.88V84.88a2,2,0,0,1,4,0v7.75A1.94,1.94,0,0,1,127,94.5Z" /><path class="cls-10" d="M149,94.5a1.94,1.94,0,0,1-2-1.88V84.88a2,2,0,0,1,4,0v7.75A1.94,1.94,0,0,1,149,94.5Z" /><path class="cls-10" d="M141,104a1.94,1.94,0,0,1-2-1.88V94.38a2,2,0,0,1,4,0v7.75A1.94,1.94,0,0,1,141,104Z" /><path class="cls-10" d="M135,104a1.94,1.94,0,0,1-2-1.88V94.38a2,2,0,0,1,4,0v7.75A1.94,1.94,0,0,1,135,104Z" /><path class="cls-10" d="M146,83a8,8,0,0,0-16,0Z" /><circle class="cls-4" cx="134" cy="79" r="1" /><circle class="cls-4" cx="142" cy="79" r="1" /><path class="cls-10" d="M130,96a2,2,0,0,0,2,2h12a2,2,0,0,0,2-2V85H130Z" /><rect class="cls-10" x="132.84" y="72.34" width="1" height="6" rx="0.5" ry="0.5" transform="translate(-14.22 116.36) rotate(-45)" /><rect class="cls-10" x="142.23" y="72.27" width="1" height="6" rx="0.5" ry="0.5" transform="translate(190.44 229.42) rotate(-135)" /><path class="cls-2" d="M239.93,107H185.07a2,2,0,0,1-2.07-2s3.5-3,3.67-3h50.72c2.11,0,4.61,3,4.61,3A2,2,0,0,1,239.93,107Z" /></g>
</svg>